<svg width="277" height="244" viewBox="0 0 277 244" fill="none" xmlns="http://www.w3.org/2000/svg">
<path d="M230.275 196.791C230.95 184.059 223.443 171.186 212.411 165.162C206.592 161.987 199.99 160.402 193.406 160.032C191.634 159.93 172.075 161.546 172.515 162.798L172.375 162.402C173.713 161.476 174.994 160.294 176.084 159.38C180.246 155.892 183.897 151.708 186.485 146.91C192.584 135.596 192.813 117.983 180.01 111.333C172.458 107.41 163.267 107.065 154.976 107.883C144.02 108.956 133.288 112.412 123.55 117.504C112.55 123.247 102.703 131.239 95.1001 141.077C90.3139 147.274 86.5219 154.135 83.7368 161.405C82.4685 164.715 85.5468 168.056 88.9628 167.123C89.632 166.944 90.282 166.753 90.913 166.554C91.7925 166.286 92.6337 166.005 93.4495 165.711C102.518 162.447 107.993 157.764 111.256 153.739C111.256 153.739 115.972 148.322 114.022 155.196C111.243 164.293 105.915 172.534 99.2491 179.267C93.2392 185.336 86.114 190.211 78.4789 194.018C69.8051 198.343 60.5767 201.352 51.6225 205C32.605 212.749 14.1037 223.054 0.713686 239.05C-1.17914 241.312 0.981359 244.679 3.82379 243.88C19.5209 239.478 52.4191 232.7 78.2878 230.49C93.8382 229.161 109.459 228.695 125.06 229.084C140.413 229.468 155.702 232.055 171.024 232.061H171.674L171.654 232.055C188.39 231.902 207.421 228.299 220.192 216.71C224.456 212.839 228.006 207.977 229.427 202.387C229.899 200.541 230.173 198.675 230.275 196.804V196.791Z" fill="#00BED1"/>
<path d="M142.07 197.954C141.318 196.037 142.191 193.852 144.059 192.99C154.058 188.384 190.589 173.147 197.415 193.149C204.323 213.407 148.36 213.969 142.07 197.947V197.954Z" fill="#EEC340"/>
<path d="M131.835 42.3506C130.79 38.7667 129.993 35.1508 129.77 31.2411C129.4 24.7952 129.216 18.3301 129.496 11.8522L129.802 4.78661C129.961 1.10687 125.946 -1.24407 122.83 0.698014L116.839 4.43525C112.416 7.19505 108.885 10.0826 106.706 12.0119C104.813 13.6921 103.627 14.8676 102.863 15.73C102.761 15.8322 102.659 15.928 102.557 16.0302C102.009 16.5541 101.448 17.1035 100.861 17.7104C96.1262 22.6423 91.8816 28.1491 88.2426 34.0712C83.0102 42.5997 79.1991 51.2241 76.9238 59.6888C73.8711 71.041 73.9285 80.547 77.1023 88.7626C81.6973 100.651 93.1244 108.643 105.539 108.643C107.317 108.643 109.108 108.484 110.874 108.158C116.743 107.085 122.192 104.248 126.634 99.9359C133.989 92.8 138.418 81.6586 138.195 70.8494C138.055 64.0138 136.768 57.1717 134.569 50.7067C133.6 47.8638 132.638 45.1168 131.829 42.3442L131.835 42.3506Z" fill="#00BED1"/>
<path d="M125.213 47.4997C124.219 44.7718 123.416 42.0056 123.046 38.9839C122.435 34.0009 121.957 28.9924 121.848 23.9519L121.727 18.4515C121.663 15.5895 118.426 13.9668 116.106 15.6406L111.645 18.8476C108.35 21.2177 105.762 23.6325 104.169 25.2488C102.786 26.6478 101.926 27.6253 101.378 28.328C101.301 28.411 101.231 28.4941 101.155 28.5771C100.759 29.0116 100.352 29.4651 99.9245 29.9698C96.4958 34.0393 93.4876 38.5303 90.9639 43.3153C87.3375 50.202 84.8201 57.0887 83.4818 63.7774C81.6909 72.7404 82.2199 80.119 85.1005 86.3286C89.275 95.3235 98.5479 100.939 108.178 100.306C109.554 100.217 110.944 99.9998 112.288 99.6612C116.788 98.5305 120.873 96.0454 124.098 92.4742C129.439 86.5585 132.313 77.685 131.593 69.3098C131.14 64.0138 129.789 58.7689 127.756 53.8626C126.857 51.7033 125.972 49.6206 125.207 47.5125L125.213 47.4997Z" fill="#EEC340"/>
<path d="M77.9499 133.533C76.586 123.797 71.8189 115.179 68.1798 106.197C65.5031 99.5846 64.7511 91.5415 64.5089 84.4056L64.254 76.9951C64.1265 73.2387 59.78 71.2327 56.8484 73.5773L51.0679 78.1961C51.0679 78.1961 51.036 78.2216 51.0106 78.2408C47.4607 81.1028 44.7011 83.9712 43.0122 85.875C41.5974 87.4721 40.6669 88.6284 40.0487 89.5228L39.9149 89.6825C39.4943 90.2 39.0163 90.7813 38.5319 91.4202C34.9438 96.1859 31.8337 101.399 29.3036 106.906C25.6581 114.84 23.2491 122.704 22.1529 130.287C20.668 140.56 21.7323 148.916 25.4032 155.828C30.2787 165.002 39.6026 170.694 49.7359 170.694C52.3999 170.694 55.0448 170.292 57.6068 169.5C62.7435 167.909 67.3003 164.785 70.7928 160.473C76.6306 153.279 79.3074 143.205 77.9499 133.533Z" fill="#00BED1"/>
<path d="M63.4701 115.511C62.342 113.211 61.386 110.86 60.7742 108.247C59.7736 103.935 58.8878 99.5909 58.3205 95.1829L57.7023 90.3724C57.3837 87.8681 54.3947 86.7501 52.5146 88.4303L48.901 91.6565C46.237 94.0393 44.1913 96.4031 42.9421 97.9682C41.8587 99.329 41.1959 100.262 40.7816 100.932C40.7243 101.009 40.6669 101.092 40.6095 101.169C40.3036 101.59 39.985 102.025 39.6599 102.504C37.0342 106.395 34.81 110.611 33.051 115.038C30.5145 121.414 28.9467 127.687 28.3986 133.673C27.6657 141.697 28.8128 148.117 31.9166 153.292C36.4096 160.786 45.0644 164.842 53.4515 163.386C54.6496 163.175 55.8478 162.856 56.9949 162.434C60.8379 161.022 64.1838 158.46 66.6821 155.03C70.8119 149.344 72.5072 141.295 71.0923 134.018C70.2001 129.418 68.5303 124.947 66.287 120.832C65.2991 119.024 64.3304 117.28 63.4573 115.504L63.4701 115.511Z" fill="#EEC340"/>
<path d="M163.93 50.7131C161.731 57.1782 160.444 64.0266 160.304 70.8558C160.087 81.665 164.517 92.8064 171.865 99.9423C176.3 104.248 181.75 107.091 187.626 108.164C189.385 108.484 191.182 108.65 192.96 108.65C205.368 108.65 216.796 100.658 221.397 88.769C224.571 80.5598 224.628 71.0475 221.575 59.6952C219.3 51.2242 215.489 42.6062 210.257 34.0776C206.624 28.1555 202.379 22.6487 197.638 17.7168C197.051 17.1035 196.484 16.5605 195.943 16.0367C195.841 15.9345 195.739 15.8386 195.637 15.7364C194.872 14.874 193.693 13.6985 191.794 12.0183C189.614 10.0826 186.083 7.19508 181.66 4.44166L175.67 0.70443C172.553 -1.23765 168.538 1.11329 168.697 4.79303L169.003 11.8586C169.284 18.3301 169.099 24.7952 168.729 31.2475C168.506 35.1572 167.709 38.7731 166.664 42.357C165.855 45.1296 164.893 47.8766 163.924 50.7195L163.93 50.7131Z" fill="#00BED1"/>
<path d="M170.737 53.8433C168.697 58.7497 167.352 63.9946 166.9 69.2906C166.18 77.6658 169.048 86.5393 174.395 92.455C177.62 96.0262 181.705 98.5113 186.204 99.642C187.555 99.9806 188.938 100.198 190.315 100.287C199.945 100.92 209.224 95.3043 213.392 86.3094C216.273 80.0998 216.802 72.7212 215.011 63.7582C213.673 57.0695 211.162 50.1828 207.529 43.296C205.011 38.5111 201.997 34.02 198.568 29.9506C198.141 29.4459 197.733 28.9923 197.338 28.5579C197.262 28.4749 197.192 28.3918 197.115 28.3088C196.567 27.5997 195.707 26.6286 194.324 25.2296C192.73 23.6133 190.137 21.1985 186.848 18.8284L182.387 15.6214C180.067 13.954 176.829 15.5766 176.766 18.4323L176.645 23.9327C176.536 28.9732 176.058 33.9817 175.446 38.9647C175.077 41.9864 174.274 44.7526 173.28 47.4805C172.508 49.5887 171.623 51.6713 170.73 53.8306L170.737 53.8433Z" fill="#EEC340"/>
<path d="M227.713 160.473C231.205 164.785 235.762 167.909 240.899 169.5C243.461 170.292 246.106 170.694 248.77 170.694C258.903 170.694 268.227 164.996 273.102 155.828C276.773 148.916 277.838 140.56 276.353 130.287C275.257 122.704 272.847 114.84 269.202 106.906C266.672 101.405 263.562 96.1923 259.974 91.4202C259.496 90.7813 259.018 90.2 258.591 89.6825L258.457 89.5228C257.839 88.6348 256.908 87.4721 255.493 85.875C253.804 83.9712 251.045 81.1028 247.495 78.2408C247.47 78.2216 247.438 78.1961 247.438 78.1961L241.657 73.5773C238.726 71.2327 234.379 73.2387 234.252 76.9951L233.997 84.4056C233.755 91.5415 233.002 99.5782 230.326 106.197C226.687 115.179 221.926 123.803 220.556 133.533C219.198 143.205 221.875 153.273 227.713 160.473Z" fill="#00BED1"/>
<path d="M232.206 120.839C229.963 124.953 228.293 129.425 227.4 134.025C225.992 141.301 227.681 149.35 231.811 155.036C234.309 158.467 237.655 161.028 241.498 162.44C242.651 162.862 243.843 163.181 245.041 163.392C253.428 164.849 262.083 160.792 266.576 153.298C269.68 148.124 270.834 141.703 270.094 133.68C269.546 127.694 267.978 121.42 265.442 115.045C263.677 110.617 261.452 106.395 258.833 102.51C258.508 102.031 258.189 101.597 257.883 101.175C257.826 101.099 257.769 101.016 257.711 100.939C257.297 100.268 256.634 99.3354 255.551 97.9747C254.302 96.4095 252.256 94.0458 249.592 91.6629L245.978 88.4367C244.098 86.7566 241.109 87.8745 240.79 90.3788L240.172 95.1893C239.605 99.5973 238.726 103.941 237.719 108.254C237.113 110.867 236.151 113.217 235.023 115.517C234.15 117.293 233.181 119.037 232.193 120.845L232.206 120.839Z" fill="#EEC340"/>
<path d="M158.672 130.645C158.66 130.645 158.653 130.639 158.64 130.632C157.767 130.134 156.792 129.744 155.76 129.45C151.095 128.026 146.71 128.933 144.116 129.802C142.637 130.294 141.503 131.482 141.07 132.983L136.36 149.376C136.36 149.376 136.347 149.421 136.341 149.446C135.901 151.395 137.641 153.337 139.776 152.839C142.905 152.11 145.996 151.203 148.985 150.06C153.816 148.207 159.934 145.345 161.929 140.151C163.662 135.634 161.833 132.466 158.66 130.651L158.672 130.645Z" fill="#EEC340"/>
</svg>
