<svg width="22" height="7" viewBox="0 0 22 7" fill="none" xmlns="http://www.w3.org/2000/svg">
<path fill-rule="evenodd" clip-rule="evenodd" d="M2.96212 0.207098C2.97094 0.209463 2.98528 0.209463 2.99409 0.207098C3.00285 0.204733 2.99568 0.202819 2.97811 0.202819C2.96054 0.202819 2.95337 0.204733 2.96212 0.207098ZM3.07265 0.207155C3.0825 0.217291 3.10582 0.218698 3.10582 0.209182C3.10582 0.204452 3.09695 0.200623 3.08606 0.200623C3.07522 0.200623 3.06914 0.203551 3.07265 0.207155ZM1.92813 0.330869C1.90163 0.358743 1.89797 0.374679 1.92413 0.34827C1.93831 0.334023 1.94827 0.320846 1.94625 0.318988C1.94422 0.317186 1.93607 0.322535 1.92813 0.330869ZM0.0604298 1.50703C0.0544084 1.51323 0.0499744 1.52697 0.0505218 1.53755C0.0515618 1.55636 0.0516713 1.55642 0.0561053 1.538C0.0585687 1.5277 0.0647544 1.51396 0.0698452 1.50748C0.0816145 1.49256 0.0748266 1.49222 0.0604298 1.50703ZM0.0586234 2.01721C0.0586234 2.03039 0.0623458 2.03883 0.0668892 2.03596C0.0714327 2.03309 0.0730202 2.02228 0.0703926 2.01197C0.0638238 1.98613 0.0586234 1.98843 0.0586234 2.01721ZM9.93702 2.25355C9.97342 2.25535 10.0329 2.25535 10.0693 2.25355C10.1057 2.25174 10.0759 2.25034 10.0031 2.25034C9.9304 2.25034 9.90062 2.25174 9.93702 2.25355ZM8.48869 2.26492C8.49619 2.27016 8.5102 2.27449 8.51984 2.27461C8.54321 2.27478 8.53588 2.26943 8.50238 2.26171C8.4824 2.25709 8.47867 2.25799 8.48869 2.26492ZM7.76108 2.32788C7.75478 2.33047 7.74969 2.337 7.74969 2.34235C7.74969 2.34899 7.7533 2.34905 7.76108 2.34257C7.76737 2.33734 7.78068 2.33097 7.79075 2.32844L7.80898 2.32382L7.79075 2.32348C7.78069 2.3233 7.77068 2.32479 7.76108 2.32788ZM3.79008 2.52812C3.80267 2.53825 3.81652 2.54659 3.82095 2.5467C3.82544 2.54681 3.8186 2.53848 3.80584 2.52812C3.79309 2.51781 3.77918 2.50948 3.77497 2.50959C3.77075 2.5097 3.77754 2.51804 3.79008 2.52812ZM2.17742 2.59068C2.17107 2.59333 2.16165 2.60459 2.1564 2.61579C2.14824 2.63314 2.14862 2.63404 2.15919 2.62199C2.16598 2.61422 2.17731 2.60262 2.18431 2.5962C2.19778 2.58387 2.19641 2.5828 2.17742 2.59068ZM3.78685 2.81418C3.78384 2.82229 3.77207 2.83276 3.76063 2.83749C3.74727 2.84301 3.74508 2.84627 3.7545 2.84661C3.77021 2.84729 3.8053 2.81277 3.79725 2.80455C3.79457 2.80179 3.78986 2.80612 3.78685 2.81418ZM2.29954 2.99308C2.29642 3.00147 2.29418 3.01538 2.29462 3.02399C2.29505 3.03261 2.29905 3.02714 2.30343 3.01194C2.31208 2.98232 2.30901 2.96768 2.29954 2.99308ZM7.21208 3.42025C7.2117 3.4283 7.21778 3.44311 7.22561 3.45314C7.23956 3.47104 7.23962 3.47104 7.23135 3.45257C7.22655 3.44177 7.22206 3.43082 7.21789 3.41974C7.21351 3.40758 7.21274 3.40764 7.21208 3.42025ZM15.7289 3.59667C15.7267 3.60044 15.7327 3.60416 15.7423 3.60489C15.7519 3.60563 15.7615 3.60315 15.7638 3.59938C15.7661 3.59566 15.7601 3.59194 15.7505 3.59121C15.7409 3.59048 15.7312 3.59296 15.7289 3.59667ZM13.5718 3.62134C13.5748 3.62449 13.589 3.62922 13.6033 3.63187C13.6176 3.63457 13.6268 3.63418 13.6238 3.63102C13.6208 3.62792 13.6066 3.62319 13.5923 3.62055C13.578 3.61785 13.5688 3.61824 13.5718 3.62134ZM14.7701 5.29208C14.7701 6.19536 14.7711 6.56352 14.7724 6.11016C14.7737 5.6568 14.7737 4.91772 14.7724 4.46774C14.7711 4.01782 14.7701 4.38874 14.7701 5.29208ZM19.0354 3.80812C19.0354 3.81009 19.0467 3.81921 19.0605 3.82833L19.0856 3.84495L19.0682 3.82473C19.0528 3.80682 19.0354 3.79804 19.0354 3.80812ZM3.36129 3.91246C3.37383 3.91984 3.38823 3.92587 3.39321 3.92587C3.39824 3.92587 3.39211 3.91984 3.37952 3.91246C3.36699 3.90509 3.35265 3.899 3.34761 3.899C3.34257 3.899 3.34876 3.90509 3.36129 3.91246ZM19.9685 4.1729C19.9522 4.19464 19.9466 4.2081 19.954 4.20798C19.9581 4.20798 19.9662 4.1974 19.972 4.18456C19.9835 4.15894 19.9822 4.15466 19.9685 4.1729ZM15.3542 4.20545L15.3382 4.23152L15.3593 4.21069C15.3709 4.1992 15.3781 4.18749 15.3753 4.18456C15.3725 4.18169 15.363 4.19109 15.3542 4.20545ZM3.36912 4.26384C3.381 4.27449 3.39534 4.2831 3.40109 4.28299C3.41198 4.28288 3.39682 4.27043 3.36584 4.25416C3.3515 4.24661 3.35221 4.24869 3.36912 4.26384ZM10.197 4.56922C10.197 4.58206 10.2004 4.59039 10.2044 4.5878C10.2131 4.58228 10.2119 4.54596 10.2031 4.54596C10.1998 4.54596 10.197 4.55643 10.197 4.56922ZM13.9907 4.55244C13.9928 4.57676 14.0071 4.59743 14.0077 4.57699C14.0081 4.56567 14.0043 4.55384 13.9992 4.55063C13.9942 4.54742 13.9904 4.54827 13.9907 4.55244ZM8.97742 5.12382C8.96165 5.14004 8.95952 5.14657 8.97003 5.14657C8.97386 5.14657 8.98207 5.13812 8.98837 5.12782C9.002 5.1053 8.99712 5.10349 8.97742 5.12382ZM21.7698 5.23504C21.7877 5.25953 21.7941 5.26066 21.7856 5.23779C21.7819 5.22903 21.7753 5.22195 21.7669 5.21786C21.7569 5.21392 21.7576 5.21814 21.7698 5.23504ZM13.737 5.25615C13.7256 5.26426 13.7165 5.27564 13.7165 5.28149C13.7166 5.28876 13.7188 5.28892 13.7234 5.28211C13.7271 5.27665 13.7402 5.26505 13.7527 5.25632C13.765 5.24759 13.7712 5.24067 13.7664 5.24095C13.7615 5.24123 13.7482 5.24804 13.737 5.25615ZM18.467 5.42914C18.4742 5.43652 18.4819 5.43663 18.4939 5.42942C18.5087 5.42058 18.5074 5.41928 18.4839 5.41906C18.4643 5.41883 18.4597 5.42154 18.467 5.42914ZM18.561 5.42813C18.561 5.43331 18.5671 5.43753 18.5747 5.43753C18.5822 5.43753 18.5884 5.43331 18.5884 5.42813C18.5884 5.423 18.5822 5.41878 18.5747 5.41878C18.5671 5.41878 18.561 5.423 18.561 5.42813ZM12.4756 5.44434C12.4756 5.44885 12.493 5.46918 12.5143 5.48962C12.5497 5.52352 12.5507 5.52391 12.5258 5.49435C12.4803 5.44057 12.4756 5.43584 12.4756 5.44434ZM0.215456 5.52673C0.216112 5.5448 0.218521 5.5577 0.22082 5.55533C0.228703 5.54722 0.229688 5.49384 0.22197 5.49384C0.217755 5.49384 0.214799 5.50865 0.215456 5.52673ZM17.7536 5.55956C17.7626 5.56986 17.7735 5.57831 17.7778 5.57831C17.782 5.57831 17.7773 5.56986 17.7672 5.55956C17.7572 5.54919 17.7463 5.54075 17.743 5.54075C17.7397 5.54075 17.7445 5.54919 17.7536 5.55956ZM2.83212 5.69093C2.83212 5.70196 2.83912 5.70196 2.86408 5.69093C2.88023 5.68378 2.87947 5.68276 2.85724 5.6822C2.84345 5.68186 2.83212 5.68575 2.83212 5.69093ZM5.69182 5.75743C5.68849 5.76306 5.69029 5.77235 5.69588 5.7781C5.70332 5.78576 5.706 5.78305 5.706 5.7679C5.706 5.74521 5.70129 5.74172 5.69182 5.75743ZM18.4904 5.81031C18.5043 5.81245 18.5248 5.81239 18.536 5.81014C18.5472 5.80794 18.5359 5.80614 18.5108 5.80625C18.4857 5.80631 18.4765 5.80811 18.4904 5.81031ZM20.9948 5.81019C21.0061 5.81245 21.0225 5.81233 21.0313 5.81003C21.04 5.80766 21.0307 5.8058 21.0106 5.80591C20.9905 5.80603 20.9834 5.80794 20.9948 5.81019ZM0.296472 6.23055C0.296472 6.23574 0.302329 6.25055 0.3095 6.26344C0.316671 6.27634 0.322528 6.28264 0.322528 6.27752C0.322528 6.27234 0.316671 6.25758 0.3095 6.24463C0.302329 6.23174 0.296472 6.22543 0.296472 6.23055ZM5.5391 6.36694C5.53067 6.37713 5.52727 6.38541 5.53165 6.38541C5.54167 6.38541 5.564 6.35821 5.55859 6.35264C5.55634 6.35033 5.54758 6.35675 5.5391 6.36694Z" fill="#EEC340"/>
</svg>
